# xmcd
#
# Track frame offsets: 
#        150
#        13398
#        25827
#        38104
#        60050
#        78866
#
# Disc length: 1347 seconds
#
# Revision: 2
# Processed by: cddbd v1.5.2PL0 Copyright (c) Steve Scherf et al.
# Submitted via: ExactAudioCopyFreeDBPlugin 1.0
#
DISCID=39054106
DTITLE=Trampled By Turtles - Live At Lucé
DYEAR=2006
DGENRE=Country
TTITLE0=Silver and Gold
TTITLE1=Codeine
TTITLE2=Nowhere to Hide
TTITLE3=The Outskirts
TTITLE4=Outlaw Blues
TTITLE5=Dyin'
EXTD=YEAR: 2006
EXTT0=
EXTT1=
EXTT2=
EXTT3=
EXTT4=
EXTT5=
PLAYORDER=
